<svg xmlns="http://www.w3.org/2000/svg" width="px" height="40" viewBox="0 0 40 40"><path d="M20 0C11.727 0 5 6.727 5 15c0 10.398 13.54 24.059 14.113 24.637a1.264 1.264 0 0 0 1.774 0C21.46 39.059 35 25.398 35 15c0-8.273-6.727-15-15-15Zm0 0" style="stroke:none;fill-rule:nonzero;fill:#a80511;fill-opacity:1"/><path d="M27.5 15c0 4.14-3.36 7.5-7.5 7.5-4.14 0-7.5-3.36-7.5-7.5 0-4.14 3.36-7.5 7.5-7.5 4.14 0 7.5 3.36 7.5 7.5Zm0 0" style="stroke:none;fill-rule:nonzero;fill:#fafafa;fill-opacity:1"/></svg>